<?xml version="1.0" encoding="UTF-8"?>
<svg width="12px" height="18px" viewBox="0 0 12 18" version="1.1" xmlns="http://www.w3.org/2000/svg" xmlns:xlink="http://www.w3.org/1999/xlink">
    <!-- Generator: sketchtool 55.2 (78181) - https://sketchapp.com -->
    <title>96056972-0178-4446-8444-C44675A9472B</title>
    <desc>Created with sketchtool.</desc>
    <g id="Page-1" stroke="none" stroke-width="1" fill="none" fill-rule="evenodd">
        <g id="008-01" transform="translate(-775.000000, -805.000000)" fill="#FFFFFF" fill-rule="nonzero">
            <g id="Group-6" transform="translate(775.000000, 805.000000)">
                <path d="M7.15434169,4.13036096 L8.69292711,4.13036096 C8.86271271,4.13036096 8.99944256,3.97409769 8.99944256,3.78216575 L8.99944256,1.43821677 C8.99944256,1.25647569 8.87623533,1.10530807 8.71546508,1.09171996 C8.22564218,1.05265404 7.27003639,1 6.58187983,1 C4.69170379,1 3.46113586,2.27898118 3.46113586,4.60594481 L3.46113586,6.9125267 L1.30651545,6.9125267 C1.13672986,6.9125267 1,7.06878997 1,7.26072192 L1,9.69639042 C1,9.8883228 1.13672986,10.0428877 1.30651545,10.0428877 L3.46113586,10.0428877 L3.46113586,16.6535028 C3.46113586,16.8454351 3.59936814,17 3.76915335,17 L5.92227172,17 C6.09205693,17 6.23028921,16.8454351 6.23028921,16.6535028 L6.23028921,10.0428877 L8.45252314,10.0428877 C8.61028854,10.0428877 8.74100791,9.91040337 8.75903859,9.73375794 L8.99793975,7.29978784 C9.01897529,7.09256895 8.87623533,6.9125267 8.69292711,6.9125267 L6.23028921,6.9125267 L6.23028921,5.17324862 C6.23028921,4.59745235 6.64348363,4.13036096 7.15434169,4.13036096 Z" id="Path"></path>
            </g>
        </g>
    </g>
</svg>