<?xml version="1.0" encoding="UTF-8"?>
<svg width="20px" height="18px" viewBox="0 0 20 18" version="1.1" xmlns="http://www.w3.org/2000/svg" xmlns:xlink="http://www.w3.org/1999/xlink">
    <!-- Generator: sketchtool 55.2 (78181) - https://sketchapp.com -->
    <title>AA10A2E1-80C4-458E-A42F-5B7E4538C5B6</title>
    <desc>Created with sketchtool.</desc>
    <g id="Page-1" stroke="none" stroke-width="1" fill="none" fill-rule="evenodd">
        <g id="008-01" transform="translate(-943.000000, -805.000000)">
            <g id="Group-4" transform="translate(929.000000, 790.000000)">
                <rect id="Rectangle-Copy" stroke="#FFFFFF" stroke-width="2" opacity="0.300000012" x="1" y="1" width="153" height="46"></rect>
                <path d="M19.6951816,32 L16,32 L16,21.0918772 L19.6951816,21.0918772 L19.6951816,32 Z M17.8475908,19.6360409 C16.8263636,19.6360409 16,18.8229022 16,17.8180205 C16,16.8166884 16.829972,16 17.8475908,16 C18.868818,16 19.6951816,16.8166884 19.6951816,17.8180205 C19.6951816,18.8229022 18.868818,19.6360409 17.8475908,19.6360409 Z M33,32 L29.445553,32 L29.445553,26.691522 C29.445553,25.4238791 29.4202928,23.7976025 27.5979622,23.7976025 C25.7503714,23.7976025 25.4652937,25.1753221 25.4652937,26.5992011 L25.4652937,32 L21.9144551,32 L21.9144551,21.084776 L25.3245599,21.084776 L25.3245599,22.57612 L25.3714712,22.57612 C25.8441948,21.7168217 27.0061558,20.8113621 28.7346638,20.8113621 C32.3324137,20.8113621 33,23.0732359 33,26.013315 C33,26.013315 33,32 33,32 Z" id="Shape" fill="#FFFFFF" fill-rule="nonzero"></path>
            </g>
        </g>
    </g>
</svg>