<?xml version="1.0" encoding="utf-8"?>
<!-- Generator: Adobe Illustrator 19.1.0, SVG Export Plug-In . SVG Version: 6.00 Build 0)  -->
<!DOCTYPE svg PUBLIC "-//W3C//DTD SVG 1.1//EN" "http://www.w3.org/Graphics/SVG/1.1/DTD/svg11.dtd">
<svg version="1.1" id="Artwork" xmlns="http://www.w3.org/2000/svg" xmlns:xlink="http://www.w3.org/1999/xlink" x="0px" y="0px"
	 viewBox="0 0 487.468 102.047" enable-background="new 0 0 487.468 102.047" xml:space="preserve">
<g>
	<g>
		<path fill="#FFFFFF" d="M56.087,23.52c0,0-20.253-31.927-42.919-19.04c-28.028,15.936-2.339,65.85-2.339,65.85
			S0.625,33.191,23.807,22.972C38.891,16.322,56.087,23.52,56.087,23.52z"/>
		<path fill="#FFFFFF" d="M42.35,2.845c0,0,55.192,11.422,48.406,45.425c-4.927,24.702-32.553,27.585-32.553,27.585
			s22.12-19.818,8.101-46.164C57.41,12.973,42.35,2.845,42.35,2.845z"/>
		<path fill="#FFFFFF" d="M84.745,70.411c0,0-29.174,44.403-53.56,25.565c-19.04-14.709-18.278-43.458-18.278-43.458
			S26.011,80.25,51.143,81.652C69.249,82.661,84.745,70.411,84.745,70.411z"/>
		<path fill="#FFFFFF" d="M27.405,64.617c0,0-24.089-23.964-2.443-36.295c14.915-8.498,35.458,1.536,35.458,1.536
			s-24.213-0.282-30.956,14.797C25.031,54.566,27.405,64.617,27.405,64.617z"/>
		<path fill="#FFFFFF" d="M38.049,40.256c0,0,26.699-15.494,27.488,5.262c0.672,17.696-14.677,30.48-14.677,30.48
			s13.201-17.276,4.295-28.206C49.504,40.858,38.049,40.256,38.049,40.256z"/>
		<path fill="#FFFFFF" d="M52.211,62.607c0,0-3.117,16.651-14.999,9.427c-9.719-5.908-4.973-23.139-4.973-23.139
			s0.535,14.409,9.98,17.413C47.053,67.846,52.211,62.607,52.211,62.607z"/>
		<path fill="#FFFFFF" d="M42.954,62.133c0,0,8.96-1.011,7.143-8.936c-1.862-8.125-15.087-7.465-15.087-7.465
			s9.088,3.067,10.269,9.691C45.974,59.32,42.954,62.133,42.954,62.133z"/>
	</g>
	<g>
		<path fill="#FFFFFF" d="M292.126,62.489c-1.022,0.779-2.312,1.169-3.871,1.169c-1.836,0-3.281-0.563-4.337-1.688
			c-1.057-1.125-1.636-2.744-1.741-4.856h18.492v-2.026c0-4.398-1.187-7.922-3.557-10.57c-2.373-2.649-5.394-3.974-9.065-3.974
			c-3.671,0-6.709,1.325-9.116,3.974c-2.407,2.648-3.609,6.172-3.609,10.57c0,4.398,1.212,7.921,3.636,10.57
			c2.423,2.649,5.558,3.974,9.402,3.974c4.76,0,8.539-2.029,11.34-6.084l-5.308-3.361C293.673,61.114,292.918,61.884,292.126,62.489
			z M283.971,48.074c1.056-1.073,2.415-1.61,4.077-1.61c1.8,0,3.22,0.493,4.259,1.481c1.039,0.987,1.645,2.363,1.818,4.129h-11.947
			C282.317,50.481,282.914,49.148,283.971,48.074z"/>
		<path fill="#FFFFFF" d="M458.324,62.489c-1.022,0.779-2.312,1.169-3.871,1.169c-1.836,0-3.281-0.563-4.337-1.688
			c-1.057-1.125-1.636-2.744-1.741-4.856h18.492v-2.026c0-4.398-1.187-7.922-3.557-10.57c-2.373-2.649-5.394-3.974-9.065-3.974
			c-3.671,0-6.709,1.325-9.116,3.974c-2.407,2.648-3.609,6.172-3.609,10.57c0,4.398,1.212,7.921,3.636,10.57
			c2.423,2.649,5.558,3.974,9.402,3.974c4.76,0,8.539-2.029,11.34-6.084l-5.308-3.361C459.87,61.114,459.115,61.884,458.324,62.489z
			 M450.168,48.074c1.056-1.073,2.415-1.61,4.077-1.61c1.8,0,3.22,0.493,4.259,1.481c1.039,0.987,1.645,2.363,1.818,4.129h-11.947
			C448.514,50.481,449.111,49.148,450.168,48.074z"/>
		<path fill="#FFFFFF" d="M139.116,68.851l-2.078-5.973H123.17l-2.078,5.973h-6.961l13.142-36.36h5.973l13.09,36.36H139.116z
			 M130.078,42.88l-4.935,14.18h9.921l-4.883-14.18H130.078z"/>
		<path fill="#FFFFFF" d="M150.585,68.851v-27.53h6.389v2.909h0.104c0.52-1.038,1.29-1.87,2.311-2.493s2.138-0.935,3.351-0.935
			c0.865,0,1.696,0.174,2.493,0.52l-1.039,6.545c-0.762-0.277-1.472-0.415-2.13-0.415c-3.152,0-4.727,2.095-4.727,6.285v15.115
			H150.585z"/>
		<path fill="#FFFFFF" d="M169.871,68.851V30.932h6.752v13.039h0.104c0.069-0.104,0.156-0.234,0.259-0.39
			c0.104-0.156,0.372-0.424,0.806-0.806c0.433-0.38,0.9-0.726,1.402-1.038c0.502-0.312,1.16-0.589,1.974-0.831
			c0.814-0.242,1.67-0.364,2.572-0.364c3.393,0,6.207,1.342,8.441,4.026s3.35,6.19,3.35,10.518c0,4.433-1.082,7.965-3.246,10.596
			c-2.164,2.632-5.064,3.948-8.7,3.948c-1.489,0-2.84-0.285-4.051-0.857c-1.213-0.571-2.044-1.134-2.493-1.688l-0.727-0.883h-0.104
			v2.649H169.871z M176.623,52.541v5.038c0,1.662,0.528,3.073,1.585,4.233c1.056,1.161,2.501,1.74,4.337,1.74
			c1.974,0,3.507-0.718,4.597-2.155c1.091-1.437,1.637-3.54,1.637-6.311c0-2.805-0.546-4.917-1.637-6.337
			c-1.09-1.419-2.622-2.13-4.597-2.13c-1.836,0-3.281,0.571-4.337,1.714C177.151,49.477,176.623,50.879,176.623,52.541z"/>
		<rect x="231.492" y="41.321" fill="#FFFFFF" width="6.752" height="27.53"/>
		<path fill="#FFFFFF" d="M263.276,68.851v-2.649h-0.104c-0.173,0.243-0.424,0.554-0.753,0.935
			c-0.329,0.382-1.126,0.892-2.389,1.532c-1.264,0.64-2.642,0.961-4.13,0.961c-3.636,0-6.537-1.316-8.7-3.948
			c-2.165-2.631-3.246-6.163-3.246-10.596c0-4.467,1.176-8.007,3.532-10.623c2.354-2.614,5.124-3.921,8.311-3.921
			c1.454,0,2.76,0.285,3.921,0.857c1.16,0.571,1.948,1.135,2.363,1.688l0.676,0.883h0.104V30.932h6.752v37.919H263.276z
			 M262.861,57.58v-5.038c0-1.662-0.529-3.065-1.585-4.207c-1.057-1.143-2.502-1.714-4.337-1.714c-1.974,0-3.507,0.71-4.598,2.13
			c-1.09,1.42-1.636,3.532-1.636,6.337c0,2.771,0.546,4.874,1.636,6.311c1.091,1.438,2.623,2.155,4.598,2.155
			c1.835,0,3.28-0.579,4.337-1.74C262.332,60.653,262.861,59.242,262.861,57.58z"/>
		<path fill="#FFFFFF" d="M306.348,68.851v-27.53h6.389v2.909h0.104c0.52-1.038,1.29-1.87,2.311-2.493
			c1.021-0.623,2.138-0.935,3.351-0.935c0.865,0,1.696,0.174,2.493,0.52l-1.039,6.545c-0.762-0.277-1.472-0.415-2.13-0.415
			c-3.152,0-4.727,2.095-4.727,6.285v15.115H306.348z"/>
		<path fill="#FFFFFF" d="M325.654,80.538V41.321h6.441v2.649h0.103c0.069-0.104,0.156-0.234,0.26-0.39
			c0.103-0.156,0.371-0.424,0.805-0.806c0.433-0.38,0.909-0.726,1.428-1.038c0.52-0.312,1.221-0.589,2.104-0.831
			c0.883-0.242,1.826-0.364,2.831-0.364c3.255,0,6.103,1.307,8.545,3.921c2.442,2.616,3.662,6.156,3.662,10.623
			c0,4.502-1.177,8.051-3.532,10.649c-2.355,2.597-5.212,3.895-8.571,3.895c-1.005,0-1.931-0.122-2.779-0.364
			c-0.849-0.242-1.532-0.527-2.052-0.857c-0.519-0.329-0.97-0.658-1.35-0.987c-0.381-0.329-0.658-0.614-0.831-0.858l-0.208-0.364
			h-0.104v14.336H325.654z M332.406,52.229v5.662c0,1.593,0.537,2.934,1.611,4.026c1.073,1.09,2.51,1.636,4.311,1.636
			c1.974,0,3.593-0.727,4.857-2.181c1.263-1.455,1.896-3.549,1.896-6.285c0-2.735-0.623-4.83-1.87-6.285
			c-1.247-1.455-2.875-2.181-4.883-2.181c-1.8,0-3.238,0.545-4.311,1.636C332.943,49.347,332.406,50.671,332.406,52.229z"/>
		<path fill="#FFFFFF" d="M373.228,68.851v-2.649h-0.103c-0.07,0.104-0.156,0.234-0.26,0.39c-0.103,0.156-0.364,0.425-0.779,0.805
			c-0.415,0.382-0.882,0.727-1.402,1.039c-0.52,0.311-1.23,0.589-2.13,0.831c-0.902,0.242-1.87,0.364-2.91,0.364
			c-3.324,0-5.81-0.787-7.454-2.363c-1.644-1.575-2.466-3.507-2.466-5.792c0-2.389,0.709-4.207,2.13-5.454
			c1.419-1.247,3.826-2.286,7.219-3.117c3.151-0.761,5.125-1.367,5.922-1.818c0.796-0.45,1.195-1.091,1.195-1.922
			c0-0.831-0.39-1.524-1.169-2.078c-0.779-0.553-1.949-0.831-3.507-0.831c-1.836,0-3.152,0.407-3.947,1.22
			c-0.797,0.814-1.42,1.914-1.87,3.298l-5.611-2.337c0.658-2.319,1.939-4.215,3.845-5.688c1.904-1.471,4.397-2.207,7.48-2.207
			c3.358,0,6.111,0.882,8.259,2.649c2.147,1.766,3.221,4.501,3.221,8.207v17.453H373.228z M366.424,57.58
			c-1.732,0.415-2.866,0.909-3.402,1.481c-0.538,0.571-0.805,1.22-0.805,1.948c0,1.87,1.35,2.805,4.051,2.805
			c2.042,0,3.575-0.39,4.597-1.17c1.021-0.779,1.532-1.74,1.532-2.883v-4.779h-0.104c-0.139,0.278-0.285,0.494-0.441,0.65
			s-0.684,0.415-1.584,0.779C369.366,56.775,368.086,57.164,366.424,57.58z"/>
		<path fill="#FFFFFF" d="M385.833,68.851v-27.53h6.389v2.909h0.104c0.52-1.038,1.29-1.87,2.311-2.493
			c1.021-0.623,2.138-0.935,3.351-0.935c0.865,0,1.696,0.174,2.493,0.52l-1.039,6.545c-0.762-0.277-1.472-0.415-2.13-0.415
			c-3.152,0-4.727,2.095-4.727,6.285v15.115H385.833z"/>
		<path fill="#FFFFFF" d="M409.135,59.034V47.035h-4.259v-5.714h4.415v-6.753h6.39v6.753h6.96v5.714h-6.857V58.41
			c0,1.455,0.242,2.477,0.727,3.065c0.484,0.59,1.471,0.883,2.961,0.883h2.233v6.493h-2.857c-3.706,0-6.251-0.779-7.636-2.337
			S409.135,62.463,409.135,59.034z"/>
		<rect x="429.09" y="41.321" fill="#FFFFFF" width="6.752" height="27.53"/>
		<path fill="#FFFFFF" d="M473.979,59.034V47.035h-4.259v-5.714h4.415v-6.753h6.39v6.753h6.96v5.714h-6.857V58.41
			c0,1.455,0.242,2.477,0.727,3.065c0.484,0.59,1.471,0.883,2.961,0.883h2.233v6.493h-2.857c-3.706,0-6.251-0.779-7.636-2.337
			S473.979,62.463,473.979,59.034z"/>
		<circle fill="#FFFFFF" cx="234.795" cy="34.8" r="3.83"/>
		<circle fill="#FFFFFF" cx="432.39" cy="34.8" r="3.83"/>
		<path fill="#FFFFFF" d="M217.238,62.489c-1.022,0.779-2.312,1.169-3.871,1.169c-1.836,0-3.281-0.563-4.337-1.688
			c-1.057-1.125-1.636-2.744-1.741-4.856h18.492v-2.026c0-4.398-1.187-7.922-3.557-10.57c-2.373-2.649-5.394-3.974-9.065-3.974
			c-3.671,0-6.709,1.325-9.116,3.974c-2.407,2.648-3.609,6.172-3.609,10.57c0,4.398,1.212,7.921,3.636,10.57
			c2.423,2.649,5.558,3.974,9.402,3.974c4.76,0,8.539-2.029,11.34-6.084l-5.308-3.361C218.784,61.114,218.029,61.884,217.238,62.489
			z M209.083,48.074c1.056-1.073,2.415-1.61,4.077-1.61c1.8,0,3.22,0.493,4.259,1.481c1.039,0.987,1.645,2.363,1.818,4.129H207.29
			C207.429,50.481,208.026,49.148,209.083,48.074z"/>
	</g>
</g>
</svg>
